<?xml version="1.0" encoding="iso-8859-1"?>
<!-- Generator: Adobe Illustrator 19.0.0, SVG Export Plug-In . SVG Version: 6.00 Build 0)  -->
<svg version="1.1" id="Capa_1" xmlns="http://www.w3.org/2000/svg" xmlns:xlink="http://www.w3.org/1999/xlink" x="0px" y="0px"
	 viewBox="0 0 512 512" style="enable-background:new 0 0 512 512;" xml:space="preserve">
<path style="fill:#FFD782;" d="M17.067,153.6H0v316.075C0.06,493.03,18.97,511.94,42.325,512h427.349
	c23.356-0.06,42.266-18.97,42.325-42.325V153.6H17.067z"/>
<path style="fill:#DA1C4B;" d="M503.467,68.267h-59.733v42.667c0,4.71-3.823,8.533-8.533,8.533H384c-4.71,0-8.533-3.823-8.533-8.533
	V68.267h-85.333v42.667c0,4.71-3.823,8.533-8.533,8.533h-51.2c-4.71,0-8.533-3.823-8.533-8.533V68.267h-85.333v42.667
	c0,4.71-3.823,8.533-8.533,8.533H76.8c-4.71,0-8.533-3.823-8.533-8.533V68.267H8.533C3.823,68.267,0,72.09,0,76.8v76.8h512V76.8
	C512,72.09,508.177,68.267,503.467,68.267z"/>
<g>
	<path style="fill:#7D8D9C;" d="M375.467,110.933c0,4.71,3.823,8.533,8.533,8.533h51.2c4.71,0,8.533-3.823,8.533-8.533V8.533
		c0-4.71-3.823-8.533-8.533-8.533H384c-4.71,0-8.533,3.823-8.533,8.533V110.933z"/>
	<path style="fill:#7D8D9C;" d="M221.867,110.933c0,4.71,3.823,8.533,8.533,8.533h51.2c4.71,0,8.533-3.823,8.533-8.533V8.533
		c0-4.71-3.823-8.533-8.533-8.533h-51.2c-4.71,0-8.533,3.823-8.533,8.533V110.933z"/>
	<path style="fill:#7D8D9C;" d="M68.267,110.933c0,4.71,3.823,8.533,8.533,8.533H128c4.71,0,8.533-3.823,8.533-8.533V8.533
		C136.533,3.823,132.71,0,128,0H76.8c-4.71,0-8.533,3.823-8.533,8.533V110.933z"/>
</g>
<g>
	<rect x="51.2" y="179.2" style="fill:#FFFFFF;" width="68.267" height="68.267"/>
	<rect x="162.133" y="179.2" style="fill:#FFFFFF;" width="68.267" height="68.267"/>
	<rect x="281.6" y="179.2" style="fill:#FFFFFF;" width="68.267" height="68.267"/>
	<rect x="392.533" y="179.2" style="fill:#FFFFFF;" width="68.267" height="68.267"/>
	<rect x="51.2" y="281.6" style="fill:#FFFFFF;" width="68.267" height="68.267"/>
	<rect x="281.6" y="281.6" style="fill:#FFFFFF;" width="68.267" height="68.267"/>
	<rect x="392.533" y="281.6" style="fill:#FFFFFF;" width="68.267" height="68.267"/>
	<rect x="51.2" y="384" style="fill:#FFFFFF;" width="68.267" height="68.267"/>
	<rect x="162.133" y="384" style="fill:#FFFFFF;" width="68.267" height="68.267"/>
	<rect x="281.6" y="384" style="fill:#FFFFFF;" width="68.267" height="68.267"/>
	<rect x="392.533" y="384" style="fill:#FFFFFF;" width="68.267" height="68.267"/>
</g>
<path style="fill:#DA1C4B;" d="M187.733,366.933c-2.995,0-5.769-1.57-7.313-4.139l-25.6-42.667
	c-2.355-4.079-0.956-9.301,3.132-11.657c3.977-2.295,9.062-1.024,11.494,2.867l18.005,29.995l35.49-63.881
	c2.159-4.19,7.313-5.828,11.494-3.669c4.19,2.159,5.828,7.313,3.669,11.494c-0.077,0.154-0.162,0.299-0.247,0.444l-42.667,76.8
	c-1.476,2.662-4.267,4.343-7.313,4.395L187.733,366.933z"/>
<path d="M51.2,256h68.267c4.71,0,8.533-3.823,8.533-8.533V179.2c0-4.71-3.823-8.533-8.533-8.533H51.2
	c-4.71,0-8.533,3.823-8.533,8.533v68.267C42.667,252.177,46.49,256,51.2,256z M59.733,187.733h51.2v51.2h-51.2V187.733z"/>
<path d="M162.133,256H230.4c4.71,0,8.533-3.823,8.533-8.533V179.2c0-4.71-3.823-8.533-8.533-8.533h-68.267
	c-4.71,0-8.533,3.823-8.533,8.533v68.267C153.6,252.177,157.423,256,162.133,256z M170.667,187.733h51.2v51.2h-51.2V187.733z"/>
<path d="M281.6,256h68.267c4.71,0,8.533-3.823,8.533-8.533V179.2c0-4.71-3.823-8.533-8.533-8.533H281.6
	c-4.71,0-8.533,3.823-8.533,8.533v68.267C273.067,252.177,276.89,256,281.6,256z M290.133,187.733h51.2v51.2h-51.2V187.733z"/>
<path d="M392.533,256H460.8c4.71,0,8.533-3.823,8.533-8.533V179.2c0-4.71-3.823-8.533-8.533-8.533h-68.267
	c-4.71,0-8.533,3.823-8.533,8.533v68.267C384,252.177,387.823,256,392.533,256z M401.067,187.733h51.2v51.2h-51.2V187.733z"/>
<path d="M51.2,358.4h68.267c4.71,0,8.533-3.823,8.533-8.533V281.6c0-4.71-3.823-8.533-8.533-8.533H51.2
	c-4.71,0-8.533,3.823-8.533,8.533v68.267C42.667,354.577,46.49,358.4,51.2,358.4z M59.733,290.133h51.2v51.2h-51.2V290.133z"/>
<path d="M281.6,358.4h68.267c4.71,0,8.533-3.823,8.533-8.533V281.6c0-4.71-3.823-8.533-8.533-8.533H281.6
	c-4.71,0-8.533,3.823-8.533,8.533v68.267C273.067,354.577,276.89,358.4,281.6,358.4z M290.133,290.133h51.2v51.2h-51.2V290.133z"/>
<path d="M392.533,358.4H460.8c4.71,0,8.533-3.823,8.533-8.533V281.6c0-4.71-3.823-8.533-8.533-8.533h-68.267
	c-4.71,0-8.533,3.823-8.533,8.533v68.267C384,354.577,387.823,358.4,392.533,358.4z M401.067,290.133h51.2v51.2h-51.2V290.133z"/>
<path d="M51.2,460.8h68.267c4.71,0,8.533-3.823,8.533-8.533V384c0-4.71-3.823-8.533-8.533-8.533H51.2
	c-4.71,0-8.533,3.823-8.533,8.533v68.267C42.667,456.977,46.49,460.8,51.2,460.8z M59.733,392.533h51.2v51.2h-51.2V392.533z"/>
<path d="M162.133,460.8H230.4c4.71,0,8.533-3.823,8.533-8.533V384c0-4.71-3.823-8.533-8.533-8.533h-68.267
	c-4.71,0-8.533,3.823-8.533,8.533v68.267C153.6,456.977,157.423,460.8,162.133,460.8z M170.667,392.533h51.2v51.2h-51.2V392.533z"/>
<path d="M281.6,460.8h68.267c4.71,0,8.533-3.823,8.533-8.533V384c0-4.71-3.823-8.533-8.533-8.533H281.6
	c-4.71,0-8.533,3.823-8.533,8.533v68.267C273.067,456.977,276.89,460.8,281.6,460.8z M290.133,392.533h51.2v51.2h-51.2V392.533z"/>
<path d="M392.533,460.8H460.8c4.71,0,8.533-3.823,8.533-8.533V384c0-4.71-3.823-8.533-8.533-8.533h-68.267
	c-4.71,0-8.533,3.823-8.533,8.533v68.267C384,456.977,387.823,460.8,392.533,460.8z M401.067,392.533h51.2v51.2h-51.2V392.533z"/>
<path d="M222.942,277.461l-35.49,63.872l-18.005-30.003c-2.5-3.994-7.765-5.205-11.759-2.705c-3.891,2.441-5.163,7.518-2.867,11.494
	l25.6,42.667c1.545,2.569,4.318,4.147,7.313,4.147h0.145c3.046-0.051,5.837-1.732,7.313-4.395l42.667-76.8
	c2.406-4.053,1.075-9.284-2.97-11.699c-4.053-2.406-9.284-1.075-11.699,2.97C223.104,277.163,223.019,277.308,222.942,277.461z"/>
<path d="M503.467,68.267h-59.733V8.533c0-4.71-3.823-8.533-8.533-8.533H384c-4.71,0-8.533,3.823-8.533,8.533v59.733h-85.333V8.533
	c0-4.71-3.823-8.533-8.533-8.533h-51.2c-4.71,0-8.533,3.823-8.533,8.533v59.733h-85.333V8.533C136.533,3.823,132.71,0,128,0H76.8
	c-4.71,0-8.533,3.823-8.533,8.533v59.733H8.533C3.823,68.267,0,72.09,0,76.8v392.866C0.026,493.039,18.961,511.974,42.334,512
	h427.332c23.373-0.026,42.308-18.961,42.334-42.334V76.8C512,72.09,508.177,68.267,503.467,68.267z M392.533,17.067h34.133V102.4
	h-34.133V17.067z M238.933,17.067h34.133V102.4h-34.133V17.067z M85.333,17.067h34.133V102.4H85.333V17.067z M494.933,469.666
	c-0.017,13.952-11.315,25.25-25.267,25.267H42.334c-13.952-0.017-25.25-11.315-25.267-25.267V153.6h477.867V469.666z
	 M494.933,136.533H17.067v-51.2h51.2v25.6c0,4.71,3.823,8.533,8.533,8.533H128c4.71,0,8.533-3.823,8.533-8.533v-25.6h85.333v25.6
	c0,4.71,3.823,8.533,8.533,8.533h51.2c4.71,0,8.533-3.823,8.533-8.533v-25.6h85.333v25.6c0,4.71,3.823,8.533,8.533,8.533h51.2
	c4.71,0,8.533-3.823,8.533-8.533v-25.6h51.2V136.533z"/>
<g>
</g>
<g>
</g>
<g>
</g>
<g>
</g>
<g>
</g>
<g>
</g>
<g>
</g>
<g>
</g>
<g>
</g>
<g>
</g>
<g>
</g>
<g>
</g>
<g>
</g>
<g>
</g>
<g>
</g>
</svg>
